<svg width="104" height="108" viewBox="0 0 104 108" fill="none" xmlns="http://www.w3.org/2000/svg">
<path d="M6.12139 97.7956C4.98736 97.7956 3.84741 97.7247 2.71338 97.5888L2.13749 93.1207L3.59811 92.8753L2.54137 73.2201L0 73.1296L0.332513 68.2673L7.55242 68.3382L7.7958 69.4552C9.60077 68.7899 11.2097 68.4544 12.6111 68.4544C13.3176 68.4544 14.2737 68.6221 15.4788 68.958C16.6901 69.2874 17.7528 70.1591 18.6849 71.5537C19.7357 73.155 20.2642 74.9567 20.2642 76.9453C20.2642 78.3854 19.9613 79.7671 19.3617 81.0973C18.7562 82.4275 17.7764 83.3635 16.4227 83.8933C17.7883 84.2549 18.7503 85.1072 19.3084 86.4439C19.7123 87.3996 19.9139 88.4133 19.9139 89.4724C19.9139 89.8726 19.8485 90.5636 19.7061 91.5322C19.5696 92.5073 19.0233 93.4566 18.0734 94.3862C16.405 95.8129 14.1428 96.7948 11.287 97.3241C9.57117 97.6339 7.84908 97.7956 6.12139 97.7956V97.7956ZM9.58301 92.4815C11.1742 92.4815 12.4628 92.1911 13.4482 91.6098C14.5112 90.99 15.0453 90.2346 15.0453 89.3368C15.0453 88.5814 14.5881 87.9422 13.6738 87.406C12.9078 86.9668 11.8096 86.7476 10.3845 86.7476C9.93329 86.7476 9.45211 86.7733 8.94167 86.8252L8.8703 92.4622L9.58268 92.4815H9.58301ZM8.69829 82.8671C10.8417 82.5312 12.4625 81.8406 13.561 80.8008C14.6536 79.7549 15.2058 78.6636 15.2058 77.5141C15.2058 76.3713 14.6299 75.4542 13.484 74.7699C12.7299 74.3307 11.7146 74.1115 10.4381 74.1115C9.76719 74.1115 9.02488 74.1762 8.21152 74.2989L8.69829 82.8674V82.8671Z" fill="#FF7534"/>
<path d="M27.2348 97.4141L22.7697 96.7556C22.8348 96.1744 22.8707 95.3868 22.8707 94.386C22.8707 92.4874 22.7875 90.376 22.6273 88.0712C22.3602 84.2096 22.0336 81.614 21.6534 80.2773L25.9521 78.7665C26.0886 79.2701 26.2313 79.9093 26.3678 80.6908C27.8521 79.5351 29.3068 78.9539 30.7319 78.9539C31.195 78.9539 31.664 79.0247 32.1271 79.1606L32.2458 79.2186C33.6946 79.8384 34.5198 81.2978 34.7158 83.6095C34.7514 84.0487 34.7691 84.4811 34.7691 84.9139C34.7691 85.8568 34.6977 86.58 34.5613 87.0707L34.5257 87.1805V87.1998L30.2804 85.5145L30.2626 85.5921C30.2863 85.4823 30.2984 85.3081 30.2984 85.082C30.2984 84.4879 30.1501 84.191 29.8472 84.191C29.7522 84.191 29.5861 84.2815 29.3423 84.4557C28.3925 85.1013 27.6265 85.8117 27.0447 86.5929C27.2644 89.0401 27.3772 91.5517 27.3772 94.1281C27.3772 95.4969 27.3298 96.5947 27.2348 97.4148V97.4141Z" fill="#1E496C"/>
<path d="M38.7179 78.1409C38.0947 78.1409 37.5602 77.902 37.1208 77.4241C36.6814 76.9398 36.4617 76.3718 36.4617 75.7001C36.4617 75.0223 36.6814 74.4411 37.1208 73.9568C37.5602 73.4789 38.0947 73.24 38.7179 73.24C39.3356 73.24 39.8638 73.4789 40.3032 73.9568C40.7426 74.4411 40.9623 75.0223 40.9623 75.7001C40.9623 76.3718 40.7426 76.9398 40.3032 77.4241C39.8638 77.902 39.3356 78.1409 38.7179 78.1409ZM37.1741 97.6412L36.337 79.6521H40.8613C40.8613 83.1194 40.885 85.9995 40.9264 88.2786C40.9978 91.7202 41.0333 94.6002 41.0333 96.9051L37.1741 97.6412V97.6412Z" fill="#B2DB35"/>
<path d="M48.498 92.4814C49.2403 92.4814 50.0714 92.2167 51.0035 91.6873C51.0035 89.8793 51.0867 87.7486 51.2646 85.2884C50.8075 85.1014 50.3444 85.0044 49.8695 85.0044C48.6167 85.0044 47.726 85.605 47.1916 86.8061C46.9005 87.4002 46.7581 88.1556 46.7581 89.0723C46.7581 90.4995 46.9541 91.4616 47.3458 91.9653C47.5892 92.3076 47.9753 92.4817 48.4976 92.4817L48.498 92.4814ZM49.5547 107.914C47.7616 107.888 46.2595 107.372 45.0541 106.364C43.8487 105.357 43.1778 104.382 43.0531 103.452C42.9225 102.515 42.863 101.928 42.863 101.676C42.863 100.275 43.3616 98.7962 44.3532 97.2467L48.7055 100.062C48.3671 100.592 48.2006 101.063 48.2006 101.463C48.2006 101.702 48.2661 101.922 48.3907 102.109C48.6818 102.535 49.0854 102.748 49.608 102.748C50.4213 102.748 50.9972 102.367 51.3297 101.599C51.6208 100.927 51.7691 100.269 51.7691 99.6103C51.7691 98.8549 51.6504 97.9378 51.4189 96.8662V96.8082C50.3858 97.1892 49.4356 97.3762 48.569 97.3762C46.5739 97.3762 44.9887 96.5951 43.8191 95.0324C42.7742 93.67 42.2516 91.6877 42.2516 89.0723C42.2516 87.3741 42.5427 85.9083 43.1245 84.6879C43.9082 82.9961 45.0008 81.7692 46.3901 81.0138C47.5063 80.4133 48.6759 80.11 49.905 80.11C50.5341 80.11 51.1459 80.1811 51.7514 80.336C51.7751 80.11 51.7987 79.8968 51.8346 79.7097L56.2875 80.4845C55.9076 83.0737 55.6583 86.2055 55.5393 89.8861C55.5156 90.5445 55.5038 91.1515 55.5038 91.707C55.5038 93.3924 55.5988 94.6901 55.7827 95.6007C56.1566 97.1763 56.3408 98.5902 56.3408 99.8367C56.3408 100.618 56.2694 101.335 56.1329 101.974C55.759 103.691 55.088 105.028 54.1142 105.984C52.7723 107.275 51.2525 107.915 49.5544 107.915L49.5547 107.914Z" fill="#6699FF"/>
<path d="M70.0496 98.2096L65.0741 98.0805C65.6855 93.4636 65.9944 89.8027 65.9944 87.0904C65.9944 86.535 65.9884 85.9863 65.9766 85.4437C65.9292 84.6625 65.8105 84.204 65.6086 84.0813C65.5194 84.0165 65.3829 83.9843 65.2106 83.9843C64.8959 83.9972 64.5574 84.1006 64.1835 84.288C63.1978 84.7916 62.5091 85.6247 62.1174 86.7868V87.3358C62.1174 91.1454 62.2302 94.3871 62.4617 97.06L57.973 97.5508C57.7177 94.6257 57.5927 91.1776 57.5927 87.2196L57.6286 84.0427V81.4856C57.6286 80.2133 57.6227 78.9543 57.6108 77.7082C57.5753 76.5328 57.5576 75.4158 57.5576 74.3571C57.5576 72.226 57.623 70.3278 57.7477 68.6617L62.8656 69.3074C62.5867 72.2196 62.3788 75.7452 62.2364 79.8775C62.2364 79.8646 62.2423 79.8582 62.2542 79.8582C62.266 79.8582 62.2779 79.8582 62.29 79.8453C63.2639 79.3481 64.2552 79.0963 65.2645 79.0834C66.3213 79.0834 67.2951 79.4129 68.1858 80.0713C69.5987 81.1304 70.3647 82.8416 70.4834 85.2176V86.6122C70.4834 88.6073 70.4062 90.7835 70.2578 93.1402C70.1509 95.0967 70.0799 96.7885 70.05 98.2089L70.0496 98.2096Z" fill="#1B8E43"/>
<path d="M77.7567 97.2843C77.0798 97.2843 76.3493 97.0261 75.5596 96.5096C74.4256 95.7284 73.5945 94.5595 73.0719 93.0165C72.5555 91.4735 72.2645 90.0528 72.2049 88.7483C72.1454 87.4503 72.1158 86.4885 72.1158 85.8558C72.1158 84.4805 72.175 83.0855 72.2937 81.6587L70.8331 81.736L70.5542 76.8351C71.3202 76.7836 72.074 76.751 72.8282 76.7381C73.0064 75.4659 73.1725 74.2845 73.333 73.1996L73.7188 70.4941L78.1898 71.1398L77.7859 73.9744C77.6495 74.9108 77.507 75.9244 77.3525 77.0221C78.154 77.1641 78.9673 77.3644 79.7869 77.6291L78.5046 82.3362C77.9228 82.1488 77.3409 82.0068 76.7651 81.9034C76.5871 83.6338 76.5039 85.248 76.5039 86.746C76.5039 87.1334 76.5098 87.5207 76.5217 87.902C76.5749 89.7037 76.8838 91.0271 77.4419 91.873C77.709 91.3436 77.9941 90.6268 78.2911 89.7162L82.5187 91.4531C81.9192 93.3126 81.2305 94.7333 80.4526 95.7341C79.7639 96.5607 79.188 97.0321 78.7131 97.1287C78.2382 97.2321 77.9175 97.2836 77.757 97.2836L77.7567 97.2843Z" fill="#000066"/>
<path d="M84.696 97.0792C84.4644 94.716 84.3279 92.2233 84.2862 89.5826C84.2447 86.9483 84.2207 84.417 84.2207 81.9826V78.2374C84.2207 75.054 84.1793 72.0774 84.0842 69.3072L88.5908 69.1005C88.6799 71.8836 88.7273 74.912 88.7273 78.1791V81.9243C88.7273 84.2811 88.745 86.5927 88.7805 88.8654C88.8279 91.7065 88.9588 94.2635 89.1785 96.5495L84.6956 97.0788L84.696 97.0792Z" fill="#996699"/>
<path d="M97.2494 107.14C95.5809 107.14 94.0907 106.617 92.7784 105.571C91.2645 104.325 90.5044 102.73 90.5044 100.806C90.5044 100.108 90.6468 99.2431 90.9379 98.2101L92.0124 96.6603L95.6164 99.6111L95.0583 100.425V100.58C95.0583 101.058 95.2247 101.419 95.545 101.677C95.9963 102.052 96.5426 102.239 97.1839 102.239C97.7717 102.239 98.2765 102.046 98.686 101.658C99.0958 101.264 99.3333 100.812 99.3984 100.302C99.4635 99.7918 99.4934 99.4366 99.4934 99.2363C99.4934 98.4616 99.3569 97.5187 99.0777 96.3952C99.0303 96.2082 98.9886 96.0079 98.953 95.7883C97.819 96.3434 96.786 96.6213 95.8595 96.6213C94.2564 96.6213 92.9978 96.0143 92.0831 94.7875C90.9609 93.3153 90.3969 91.1846 90.3969 88.4143C90.3969 87.3942 90.4741 86.3094 90.6225 85.1602C90.8777 83.1779 91.2993 81.2536 91.893 79.3876L96.1739 80.9567C95.3247 83.6686 94.9034 86.1416 94.9034 88.3757C94.9034 89.977 95.1053 91.049 95.5089 91.5912C95.5684 91.6817 95.6809 91.7204 95.8414 91.7204C96.4886 91.7204 97.4326 91.2618 98.6617 90.3451C98.6617 88.6533 98.7745 86.5226 99.006 83.9462C99.1603 82.1707 99.3148 80.75 99.475 79.6909L103.928 80.5046C103.548 83.0034 103.299 86.0383 103.18 89.6025C103.156 90.2353 103.144 90.8229 103.144 91.3655C103.144 92.9798 103.239 94.2195 103.423 95.0911C103.809 96.641 103.999 98.0291 103.999 99.256C103.999 99.9985 103.928 100.677 103.791 101.297C103.429 102.975 102.764 104.286 101.79 105.229C100.454 106.507 98.9402 107.14 97.2481 107.14L97.2494 107.14Z" fill="#FFCC00"/>
<path d="M52.9383 0.217285L51.9996 11.3136L51.0606 0.217285H52.9383Z" fill="#FFD400"/>
<path d="M43.9056 1.24109L45.6392 12.224L42.0914 1.76974L43.9056 1.24109Z" fill="#FFD400"/>
<path d="M35.4217 4.77429L39.7098 14.8941L33.795 5.79475L35.4217 4.77429Z" fill="#FFD400"/>
<path d="M28.0696 10.5751L34.6202 19.1436L26.7412 12.019L28.0696 10.5751Z" fill="#FFD400"/>
<path d="M22.3472 18.2462L30.7137 24.6791L21.4076 20.0149L22.3472 18.2462Z" fill="#FFD400"/>
<path d="M82.592 20.0149L73.2853 24.6787L81.653 18.2462L82.592 20.0149Z" fill="#FFD400"/>
<path d="M77.2584 12.0194L69.3784 19.1436L75.9303 10.5751L77.2584 12.0194Z" fill="#FFD400"/>
<path d="M70.2056 5.79511L64.2891 14.8945L68.5785 4.77429L70.2056 5.79511Z" fill="#FFD400"/>
<path d="M61.909 1.77145L58.3605 12.2264L60.0945 1.2428L61.909 1.77145Z" fill="#FFD400"/>
<path d="M51.9991 13.1865L38.2559 18.6926L44.7219 21.2833C43.7672 22.8124 43.2094 24.658 43.2094 26.6456C43.2094 31.925 47.1449 36.205 51.9994 36.205C56.8539 36.205 60.7894 31.925 60.7894 26.6456C60.7894 24.658 60.2316 22.8124 59.2769 21.2833L63.5058 19.589V21.6592H63.3219V22.4676H63.4167L63.0253 25.0214H64.4793L64.0879 22.4676H64.1827V21.6592H63.9991V19.3912L65.7423 18.6926L51.9991 13.1865V13.1865Z" fill="#1E496C"/>
<path fill-rule="evenodd" clip-rule="evenodd" d="M72.2995 41.0811L72.1393 58.6836C63.6591 57.1009 57.1289 59.6801 51.9649 65.1759C51.9458 65.1558 51.9267 65.1358 51.9077 65.1158L51.9017 65.1097V67.6821C51.9228 67.7043 51.9438 67.7265 51.9649 67.7486C57.6775 61.6688 64.9016 58.8156 74.2827 60.5664C74.4521 53.8632 74.6109 46.97 74.7803 40.2667C73.9637 40.1733 73.0688 40.3264 72.2995 41.0808V41.0811Z" fill="#146831"/>
<path fill-rule="evenodd" clip-rule="evenodd" d="M51.9023 67.6828V65.1104C46.0062 58.9522 39.3947 56.3505 31.791 58.6843L31.6308 41.0818C31.0076 40.1555 30.0222 39.7681 29.2184 39.723L29.6473 60.5672C38.062 57.9843 45.3776 60.8655 51.9019 67.6828H51.9023Z" fill="#1B8E43"/>
<path d="M34.9036 33.0887C34.9036 33.0887 49.0655 33.5845 51.8694 42.2879C51.8694 42.2879 49.6457 38.322 44.5222 36.0085C41.0319 34.4325 34.9517 34.1357 33.8887 34.0806C33.9854 33.695 34.9036 33.0891 34.9036 33.0891V33.0887Z" fill="#FF8200"/>
<path d="M42.1426 32.9948C40.7757 32.3785 36.6994 31.3945 36.6994 31.3945C36.6994 31.3945 35.8771 31.8599 35.7739 32.1857C36.6865 32.2987 40.7839 32.7991 43.7068 34.3708C44.7264 34.9187 45.7788 35.3748 46.6215 35.843C46.2587 35.3977 43.5101 33.6107 42.1429 32.9948H42.1426Z" fill="#FF8200"/>
<path d="M69.0278 33.0887C69.0278 33.0887 54.8659 33.5845 52.0621 42.2879C52.0621 42.2879 54.2857 38.322 59.4093 36.0085C62.8995 34.4325 68.9798 34.1357 70.0428 34.0806C69.9461 33.695 69.0278 33.0891 69.0278 33.0891V33.0887Z" fill="#FF8200"/>
<path d="M61.7889 32.9948C63.1558 32.3785 67.2321 31.3945 67.2321 31.3945C67.2321 31.3945 68.0543 31.8599 68.1576 32.1857C67.2449 32.2987 63.1476 32.7991 60.2247 34.3708C59.2051 34.9187 58.1526 35.3748 57.31 35.843C57.6728 35.3977 60.4213 33.6107 61.7886 32.9948H61.7889Z" fill="#FF8200"/>
<path fill-rule="evenodd" clip-rule="evenodd" d="M71.1056 35.751C63.5972 35.8222 56.5138 36.7979 51.9113 43.0523V63.0283C51.9293 63.0469 51.9471 63.0659 51.9652 63.0848C56.8151 57.9232 62.9483 55.5006 70.9125 56.9875C70.977 49.9086 71.0414 42.8302 71.1056 35.7513V35.751Z" fill="#1B8E43"/>
<path fill-rule="evenodd" clip-rule="evenodd" d="M51.9122 63.0283V43.0523C51.8981 43.0716 51.8836 43.0913 51.8694 43.1106C48.9975 39.0144 43.5339 36.1434 32.8254 35.751C32.8899 42.8298 32.9544 49.9083 33.0185 56.9871C40.1624 54.7946 46.3733 57.2404 51.9122 63.0283V63.0283Z" fill="#27A251"/>
</svg>
